<?xml version="1.0" encoding="utf-8"?>
<!-- Generator: Adobe Illustrator 23.0.1, SVG Export Plug-In . SVG Version: 6.00 Build 0)  -->
<svg version="1.1" id="Layer_1" xmlns="http://www.w3.org/2000/svg" xmlns:xlink="http://www.w3.org/1999/xlink" x="0px" y="0px"
	 viewBox="0 0 595.3 595.3" style="enable-background:new 0 0 595.3 595.3;" xml:space="preserve">
<style type="text/css">
	.st0{fill:#3CA555;}
	.st1{fill:#FFFFFF;}
</style>
<g>
	<ellipse class="st0" cx="297.6" cy="297.6" rx="243" ry="293"/>
	<ellipse class="st1" cx="297.6" cy="297.6" rx="222.7" ry="272.7"/>
	<path class="st0" d="M189.8,455c0.8,0.6,1.5,1.4,2,2.4c0.5,1,0.8,2.1,0.8,3.4c0,1.6-0.3,2.9-0.9,4c-0.6,1.1-1.4,1.9-2.5,2.6
		c-1.2,0.7-2.5,1.1-4,1.4c-1.5,0.3-3.3,0.4-5.4,0.4h-14.3v-1.7c0.4,0,0.9-0.1,1.5-0.2c0.6-0.1,1-0.2,1.3-0.3c0.5-0.2,0.8-0.5,1-0.9
		c0.2-0.4,0.3-0.8,0.3-1.4v-21.8c0-0.5-0.1-1-0.2-1.3c-0.1-0.3-0.5-0.7-1-0.9c-0.4-0.2-0.9-0.3-1.4-0.5c-0.5-0.1-1-0.2-1.4-0.3v-1.7
		h15c3.8,0,6.5,0.6,8.2,1.7c1.7,1.2,2.5,2.9,2.5,5.2c0,1-0.2,2-0.6,2.8c-0.4,0.8-0.9,1.5-1.6,2.1c-0.6,0.5-1.4,1-2.3,1.4
		c-0.9,0.4-1.8,0.7-2.8,1v0.4c1,0.1,2.1,0.4,3.2,0.8C188.1,453.9,189,454.4,189.8,455z M183.6,445.7c0-1.7-0.4-3.1-1.3-4
		c-0.9-1-2.2-1.4-3.9-1.4c-0.2,0-0.6,0-1,0c-0.4,0-0.7,0-1,0.1v11.5h1c2.1,0,3.6-0.5,4.6-1.6C183.1,449,183.6,447.5,183.6,445.7z
		 M184.9,460.5c0-2.1-0.6-3.8-1.7-4.9c-1.1-1.1-2.8-1.7-4.9-1.7c-0.2,0-0.6,0-1,0c-0.4,0-0.7,0-0.9,0.1v11.3c0.1,0.5,0.5,1,1.1,1.4
		c0.6,0.4,1.3,0.6,2.2,0.6c1.5,0,2.8-0.6,3.7-1.7C184.4,464.3,184.9,462.6,184.9,460.5z"/>
	<path class="st0" d="M215.4,450.1c1,1,1.7,2.2,2.2,3.6c0.5,1.4,0.8,2.9,0.8,4.5c0,1.6-0.2,3.1-0.8,4.6c-0.5,1.4-1.2,2.7-2.2,3.7
		c-1,1.1-2.3,1.9-3.7,2.5c-1.4,0.6-3.1,0.9-4.9,0.9c-1.6,0-3-0.3-4.4-0.8c-1.3-0.5-2.5-1.3-3.5-2.3c-1-1-1.8-2.2-2.3-3.6
		c-0.6-1.4-0.9-3-0.9-4.8c0-1.7,0.2-3.3,0.8-4.7c0.5-1.4,1.3-2.6,2.3-3.6c1-1,2.1-1.8,3.6-2.4c1.4-0.6,3-0.8,4.7-0.8
		c1.8,0,3.4,0.3,4.8,0.8C213.2,448.3,214.4,449.1,215.4,450.1z M210.4,465.2c0.3-0.8,0.5-1.8,0.6-3c0.1-1.2,0.2-2.5,0.2-4.1
		c0-1-0.1-2.2-0.2-3.5c-0.1-1.3-0.3-2.3-0.6-3.1c-0.3-0.9-0.7-1.6-1.3-2.2c-0.6-0.5-1.3-0.8-2.1-0.8c-0.9,0-1.7,0.3-2.2,0.9
		c-0.6,0.6-1,1.3-1.3,2.2c-0.3,0.8-0.5,1.8-0.6,2.9c-0.1,1.1-0.2,2.3-0.2,3.5c0,1.6,0,2.9,0.1,3.9c0.1,1,0.3,2.1,0.7,3.1
		c0.3,0.9,0.7,1.6,1.3,2.1c0.6,0.5,1.3,0.8,2.1,0.8c0.8,0,1.5-0.2,2-0.7C209.6,466.9,210.1,466.2,210.4,465.2z"/>
	<path class="st0" d="M243,468.7c-0.6,0.3-1.2,0.5-2,0.8c-0.8,0.2-1.6,0.4-2.5,0.4c-1.6,0-2.8-0.3-3.5-0.8c-0.7-0.5-1.3-1.3-1.5-2.3
		h-0.1c-0.4,0.5-0.9,0.9-1.3,1.3c-0.4,0.3-0.8,0.6-1.3,0.9c-0.6,0.3-1.2,0.6-1.8,0.7c-0.6,0.2-1.4,0.2-2.4,0.2
		c-1.5,0-2.8-0.5-3.9-1.5c-1.1-1-1.6-2.3-1.6-4c0-0.9,0.1-1.7,0.4-2.4c0.2-0.7,0.6-1.2,1-1.8c0.4-0.5,0.8-0.9,1.4-1.2
		c0.5-0.3,1.1-0.6,1.7-0.9c1.2-0.5,2.6-1,4.2-1.5c1.6-0.5,2.8-1,3.6-1.4v-2.1c0-0.4,0-0.8-0.1-1.5c-0.1-0.6-0.2-1.1-0.3-1.5
		c-0.2-0.5-0.5-0.9-0.9-1.2c-0.4-0.3-0.9-0.5-1.5-0.5c-0.6,0-1.1,0.1-1.4,0.3c-0.4,0.2-0.7,0.4-0.9,0.6c0,0.3,0.1,0.7,0.3,1.3
		c0.2,0.6,0.3,1.2,0.3,1.7c0,0.2-0.1,0.6-0.2,0.9c-0.1,0.4-0.3,0.7-0.5,0.9c-0.3,0.3-0.6,0.5-1,0.7c-0.4,0.2-0.9,0.2-1.7,0.2
		c-1.1,0-1.9-0.3-2.5-0.9c-0.6-0.6-0.8-1.4-0.8-2.3c0-0.8,0.3-1.5,0.9-2.2c0.6-0.6,1.3-1.2,2.1-1.6c0.8-0.4,1.8-0.8,2.8-1
		c1.1-0.2,2.1-0.4,3-0.4c1.3,0,2.4,0.1,3.5,0.3c1.1,0.2,2,0.5,2.8,1c0.8,0.5,1.4,1.2,1.9,2.2c0.5,1,0.7,2.2,0.7,3.8
		c0,1.6,0,3.6-0.1,5.8c-0.1,2.3-0.1,3.7-0.1,4.4c0,0.7,0.1,1.2,0.3,1.5c0.2,0.4,0.4,0.7,0.8,0.8c0.2,0.1,0.6,0.2,1,0.2
		c0.5,0,0.9,0,1.3,0V468.7z M233.4,457.4c-0.7,0.3-1.5,0.6-2.2,0.9c-0.7,0.4-1.3,0.7-1.8,1.1c-0.5,0.4-0.9,0.9-1.1,1.6
		c-0.3,0.6-0.4,1.4-0.4,2.2c0,1.1,0.2,2,0.7,2.5c0.5,0.5,1,0.8,1.7,0.8c0.7,0,1.3-0.2,1.8-0.5c0.5-0.3,0.9-0.7,1.2-1.2L233.4,457.4z
		"/>
	<path class="st0" d="M266.8,449.2c-0.6,0.1-1.2,0.3-1.7,0.7c-0.6,0.4-1,1-1.4,1.8c-0.9,2.1-1.8,4.3-2.7,6.4
		c-0.9,2.2-1.7,4.2-2.6,6.3c-0.3,0.6-0.6,1.4-0.9,2.4c-0.3,1-0.6,1.8-0.8,2.6h-3.6c-1.5-3.9-2.8-7.1-3.8-9.6
		c-1.1-2.6-2.2-5.3-3.4-8.2c-0.3-0.7-0.7-1.2-1.3-1.6c-0.6-0.4-1.2-0.6-1.8-0.7v-1.7h12v1.7c-0.4,0-1,0.1-1.6,0.3
		c-0.6,0.2-0.9,0.5-0.9,0.8c0,0.1,0,0.2,0.1,0.4c0.1,0.2,0.1,0.4,0.2,0.6c0.4,1.1,1,2.7,1.9,4.8c0.8,2.1,1.7,4.3,2.7,6.6
		c0.6-1.6,1.3-3.1,1.9-4.7c0.6-1.5,1.3-3.5,2.2-5.8c0.1-0.3,0.2-0.6,0.2-0.8c0-0.2,0-0.4,0-0.4c0-0.3-0.1-0.5-0.3-0.7
		c-0.2-0.2-0.5-0.4-0.8-0.5c-0.3-0.1-0.6-0.3-0.9-0.3c-0.3-0.1-0.5-0.1-0.7-0.2v-1.7h8V449.2z"/>
	<path class="st0" d="M279.5,469.2h-12.2v-1.7c0.3,0,0.7-0.1,1-0.1c0.3,0,0.6-0.1,0.8-0.2c0.4-0.2,0.7-0.4,0.9-0.7
		c0.2-0.3,0.2-0.8,0.2-1.3v-12.6c0-0.5-0.1-0.9-0.3-1.3c-0.2-0.4-0.5-0.7-0.8-0.9c-0.2-0.2-0.6-0.3-1.1-0.5
		c-0.5-0.2-0.9-0.3-1.3-0.3v-1.7l9.6-0.6l0.3,0.3v17.3c0,0.5,0.1,0.9,0.3,1.3c0.2,0.4,0.5,0.6,0.8,0.8c0.3,0.1,0.5,0.2,0.8,0.3
		c0.3,0.1,0.6,0.2,1,0.2V469.2z M276.7,439.4c0,1.1-0.4,2.1-1.1,2.8c-0.8,0.8-1.7,1.2-2.7,1.2c-1.1,0-2-0.4-2.7-1.2
		c-0.8-0.8-1.1-1.7-1.1-2.8s0.4-2.1,1.1-2.8c0.8-0.8,1.7-1.2,2.7-1.2c1.1,0,2,0.4,2.7,1.2C276.4,437.3,276.7,438.3,276.7,439.4z"/>
	<path class="st0" d="M290.4,469.9c-1.3,0-2.5-0.2-3.7-0.6c-1.2-0.4-2.1-0.8-2.8-1.3l-0.6,1.5h-1.5l-0.3-8.2h1.3
		c0.2,0.7,0.5,1.4,1,2.2s1,1.6,1.6,2.2c0.6,0.7,1.3,1.2,2.1,1.7c0.8,0.4,1.6,0.7,2.5,0.7c1.2,0,2.1-0.3,2.7-0.8
		c0.6-0.5,0.9-1.3,0.9-2.4c0-0.6-0.1-1.1-0.4-1.4c-0.3-0.4-0.6-0.7-1.1-1c-0.5-0.3-1.1-0.5-1.7-0.7c-0.6-0.2-1.3-0.5-2.2-0.7
		c-0.9-0.3-1.6-0.6-2.3-0.9c-0.6-0.3-1.3-0.8-2-1.4c-0.6-0.6-1.1-1.3-1.4-2.1c-0.4-0.8-0.5-1.8-0.5-2.9c0-2.1,0.8-3.7,2.3-5
		c1.5-1.3,3.6-1.9,6-1.9c1.2,0,2.3,0.1,3.3,0.4c1,0.3,1.8,0.6,2.5,0.9l0.4-1.3h1.5l0.3,7.4h-1.3c-0.5-1.5-1.2-2.8-2.3-3.9
		c-1.1-1.1-2.3-1.6-3.6-1.6c-1,0-1.8,0.2-2.4,0.7c-0.6,0.5-0.9,1.1-0.9,1.9c0,1.1,0.4,1.9,1.3,2.4c0.8,0.5,2,1,3.5,1.4
		c2.3,0.7,4,1.6,5.1,2.7c1.1,1.2,1.6,2.6,1.6,4.4c0,2.4-0.8,4.2-2.5,5.5C295.3,469.2,293.1,469.9,290.4,469.9z"/>
	<path class="st0" d="M316.3,468.2c-0.8,0.4-1.7,0.8-2.7,1.1s-2.1,0.5-3.5,0.5c-2,0-3.5-0.6-4.5-1.7c-1-1.1-1.5-2.7-1.5-4.7V450
		h-3.5v-2.4h3.6V441h6.3v6.6h5.5v2.4h-5.4V462c0,1.7,0.2,2.9,0.6,3.6s1.2,1.1,2.3,1.1c0.4,0,0.8,0,1.5-0.1c0.6-0.1,1.1-0.1,1.3-0.2
		V468.2z"/>
	<path class="st0" d="M339.9,468.7c-0.6,0.3-1.2,0.5-2,0.8c-0.8,0.2-1.6,0.4-2.5,0.4c-1.6,0-2.8-0.3-3.5-0.8
		c-0.7-0.5-1.3-1.3-1.5-2.3h-0.1c-0.4,0.5-0.9,0.9-1.3,1.3c-0.4,0.3-0.8,0.6-1.3,0.9c-0.6,0.3-1.2,0.6-1.8,0.7
		c-0.6,0.2-1.4,0.2-2.4,0.2c-1.5,0-2.8-0.5-3.9-1.5c-1.1-1-1.6-2.3-1.6-4c0-0.9,0.1-1.7,0.4-2.4c0.2-0.7,0.6-1.2,1-1.8
		c0.4-0.5,0.8-0.9,1.4-1.2c0.5-0.3,1.1-0.6,1.7-0.9c1.2-0.5,2.6-1,4.2-1.5c1.6-0.5,2.8-1,3.6-1.4v-2.1c0-0.4,0-0.8-0.1-1.5
		c-0.1-0.6-0.2-1.1-0.3-1.5c-0.2-0.5-0.5-0.9-0.9-1.2c-0.4-0.3-0.9-0.5-1.5-0.5c-0.6,0-1.1,0.1-1.4,0.3c-0.4,0.2-0.7,0.4-0.9,0.6
		c0,0.3,0.2,0.7,0.3,1.3c0.2,0.6,0.3,1.2,0.3,1.7c0,0.2-0.1,0.6-0.2,0.9c-0.1,0.4-0.3,0.7-0.5,0.9c-0.3,0.3-0.6,0.5-1,0.7
		c-0.4,0.2-0.9,0.2-1.7,0.2c-1.1,0-1.9-0.3-2.5-0.9c-0.6-0.6-0.8-1.4-0.8-2.3c0-0.8,0.3-1.5,0.9-2.2c0.6-0.6,1.3-1.2,2.1-1.6
		c0.8-0.4,1.8-0.8,2.8-1c1.1-0.2,2-0.4,3-0.4c1.3,0,2.4,0.1,3.5,0.3c1.1,0.2,2,0.5,2.8,1c0.8,0.5,1.4,1.2,1.9,2.2
		c0.5,1,0.7,2.2,0.7,3.8c0,1.6,0,3.6-0.1,5.8c-0.1,2.3-0.1,3.7-0.1,4.4c0,0.7,0.1,1.2,0.3,1.5c0.2,0.4,0.4,0.7,0.8,0.8
		c0.2,0.1,0.6,0.2,1,0.2c0.5,0,0.9,0,1.3,0V468.7z M330.3,457.4c-0.7,0.3-1.5,0.6-2.2,0.9c-0.7,0.4-1.3,0.7-1.8,1.1
		c-0.5,0.4-0.9,0.9-1.1,1.6c-0.3,0.6-0.4,1.4-0.4,2.2c0,1.1,0.2,2,0.7,2.5c0.5,0.5,1,0.8,1.7,0.8c0.7,0,1.3-0.2,1.8-0.5
		c0.5-0.3,0.9-0.7,1.2-1.2L330.3,457.4z"/>
	<path class="st0" d="M363.5,470c-1.7,0-3.3-0.2-4.7-0.7c-1.5-0.5-2.7-1-3.7-1.7l-1.3,1.5H352l-0.3-11.2h1.7
		c0.4,1.1,0.9,2.2,1.4,3.4c0.6,1.2,1.3,2.2,2,3.2c0.8,1,1.7,1.8,2.7,2.4c1,0.6,2.1,0.9,3.4,0.9c1.8,0,3.1-0.5,4.1-1.4
		c0.9-1,1.4-2.2,1.4-3.6c0-1.2-0.4-2.2-1.2-3c-0.8-0.8-2-1.5-3.7-2.1c-1.1-0.4-2.1-0.8-3-1.1c-0.9-0.3-1.8-0.7-2.6-1
		c-1.9-0.8-3.2-2-4.1-3.6c-0.9-1.5-1.4-3.3-1.4-5.2c0-1.2,0.2-2.4,0.7-3.5c0.5-1.1,1.1-2.1,2-3c0.9-0.8,2-1.5,3.3-2
		c1.3-0.5,2.8-0.8,4.4-0.8c1.5,0,3,0.2,4.3,0.7c1.3,0.5,2.4,1,3.2,1.4l1.2-1.3h1.7l0.2,10.6h-1.7c-0.4-1.1-0.8-2.3-1.4-3.5
		c-0.5-1.2-1.1-2.2-1.7-2.9c-0.6-0.8-1.4-1.5-2.2-2c-0.8-0.5-1.8-0.7-2.9-0.7c-1.4,0-2.5,0.4-3.4,1.3c-0.9,0.9-1.3,2-1.3,3.3
		c0,1.2,0.4,2.2,1.2,3c0.8,0.8,2,1.5,3.6,2.1c1,0.4,1.9,0.7,2.9,1.1c1,0.4,1.9,0.7,2.7,1c1.9,0.8,3.3,1.9,4.3,3.4
		c1,1.4,1.5,3.2,1.5,5.3c0,1.3-0.3,2.6-0.8,3.9c-0.6,1.3-1.3,2.3-2.3,3.1c-1,0.9-2.2,1.6-3.6,2.1C366.9,469.8,365.3,470,363.5,470z"
		/>
	<path class="st0" d="M386.9,465.5c0,1.1-0.4,2.1-1.1,3c-0.8,0.8-1.7,1.3-2.7,1.3c-1.1,0-2-0.4-2.7-1.3c-0.8-0.8-1.1-1.8-1.1-3
		c0-1.2,0.4-2.2,1.1-3c0.8-0.8,1.7-1.3,2.7-1.3c1,0,1.9,0.4,2.7,1.3C386.5,463.4,386.9,464.4,386.9,465.5z"/>
	<path class="st0" d="M405.4,470c-2,0-3.9-0.4-5.7-1.1c-1.8-0.7-3.3-1.8-4.6-3.2c-1.3-1.4-2.3-3.1-3-5.1c-0.7-2-1.1-4.2-1.1-6.7
		c0-2.4,0.4-4.6,1.1-6.7c0.7-2,1.8-3.8,3.2-5.3c1.3-1.5,2.9-2.6,4.8-3.4c1.9-0.8,3.8-1.2,6-1.2c1.5,0,2.9,0.2,4.2,0.6
		c1.3,0.4,2.3,0.9,3.2,1.4l1.2-1.2h1.7l0.2,11.3h-1.7c-1-3.5-2.1-6-3.5-7.6c-1.4-1.6-3-2.4-5-2.4c-2.4,0-4.3,1.2-5.5,3.6
		c-1.3,2.4-1.9,5.8-1.9,10.1c0,2.5,0.2,4.6,0.7,6.3c0.4,1.7,1,3.1,1.7,4.2c0.8,1.1,1.6,1.9,2.7,2.4c1,0.5,2.2,0.8,3.4,0.8
		c1.8,0,3.4-0.5,4.8-1.6c1.4-1.1,2.7-2.8,3.9-5l1.7,1.1c-0.6,1.3-1.2,2.4-1.9,3.4c-0.7,1-1.5,1.9-2.5,2.6c-1,0.8-2.2,1.4-3.4,1.9
		C408.5,469.8,407.1,470,405.4,470z"/>
	<path class="st0" d="M428.5,465.5c0,1.1-0.4,2.1-1.1,3c-0.8,0.8-1.7,1.3-2.7,1.3c-1.1,0-2-0.4-2.7-1.3c-0.8-0.8-1.1-1.8-1.1-3
		c0-1.2,0.4-2.2,1.1-3c0.8-0.8,1.7-1.3,2.7-1.3c1,0,1.9,0.4,2.7,1.3C428.2,463.4,428.5,464.4,428.5,465.5z"/>
	<path class="st0" d="M202.7,508.8c-1.2,0-2.2-0.2-3.2-0.5c-1-0.3-1.8-0.7-2.5-1.1l-0.9,1h-1.1l-0.2-7.6h1.1c0.3,0.7,0.6,1.5,1,2.3
		c0.4,0.8,0.9,1.5,1.4,2.2c0.5,0.7,1.2,1.2,1.8,1.6c0.7,0.4,1.5,0.6,2.4,0.6c1.2,0,2.1-0.3,2.8-1c0.6-0.7,1-1.5,1-2.5
		c0-0.8-0.3-1.5-0.8-2.1c-0.5-0.6-1.4-1.1-2.5-1.5c-0.7-0.3-1.4-0.5-2.1-0.8c-0.6-0.2-1.2-0.5-1.8-0.7c-1.3-0.6-2.2-1.4-2.8-2.4
		c-0.6-1-0.9-2.2-0.9-3.5c0-0.8,0.2-1.6,0.5-2.4c0.3-0.8,0.8-1.4,1.4-2c0.6-0.6,1.3-1,2.2-1.4c0.9-0.4,1.9-0.5,3-0.5
		c1,0,2,0.2,2.9,0.5c0.9,0.3,1.6,0.6,2.1,1l0.8-0.9h1.2l0.1,7.2h-1.1c-0.3-0.8-0.6-1.6-0.9-2.4c-0.4-0.8-0.7-1.5-1.1-2
		c-0.4-0.6-0.9-1-1.5-1.4c-0.6-0.3-1.2-0.5-2-0.5c-1,0-1.7,0.3-2.3,0.9c-0.6,0.6-0.9,1.3-0.9,2.2c0,0.8,0.3,1.5,0.8,2.1
		c0.5,0.5,1.3,1,2.4,1.4c0.6,0.2,1.3,0.5,2,0.7c0.7,0.2,1.3,0.5,1.8,0.7c1.3,0.6,2.2,1.3,2.9,2.3c0.7,1,1,2.2,1,3.6
		c0,0.9-0.2,1.8-0.6,2.6c-0.4,0.9-0.9,1.6-1.5,2.1c-0.7,0.6-1.5,1.1-2.5,1.4C205,508.7,203.9,508.8,202.7,508.8z"/>
	<path class="st0" d="M227.5,508c-0.4,0.2-0.8,0.4-1.4,0.5c-0.5,0.2-1.1,0.2-1.7,0.2c-1.1,0-1.9-0.2-2.4-0.5c-0.5-0.4-0.9-0.9-1-1.6
		h-0.1c-0.3,0.3-0.6,0.6-0.9,0.9c-0.3,0.2-0.6,0.4-0.9,0.6c-0.4,0.2-0.8,0.4-1.2,0.5c-0.4,0.1-0.9,0.1-1.6,0.1c-1,0-1.9-0.3-2.7-1
		c-0.7-0.7-1.1-1.6-1.1-2.7c0-0.6,0.1-1.2,0.2-1.7c0.2-0.5,0.4-0.9,0.7-1.2c0.3-0.3,0.6-0.6,0.9-0.8c0.4-0.2,0.7-0.4,1.2-0.6
		c0.8-0.3,1.8-0.7,2.9-1c1.1-0.4,1.9-0.7,2.5-0.9v-1.4c0-0.3,0-0.6-0.1-1c0-0.4-0.1-0.8-0.2-1c-0.1-0.3-0.3-0.6-0.6-0.8
		c-0.3-0.2-0.6-0.3-1.1-0.3c-0.4,0-0.7,0.1-1,0.2c-0.3,0.1-0.5,0.3-0.6,0.4c0,0.2,0.1,0.5,0.2,0.9c0.1,0.4,0.2,0.8,0.2,1.2
		c0,0.2,0,0.4-0.1,0.6c-0.1,0.3-0.2,0.5-0.3,0.6c-0.2,0.2-0.4,0.4-0.7,0.5c-0.3,0.1-0.6,0.2-1.2,0.2c-0.7,0-1.3-0.2-1.7-0.6
		c-0.4-0.4-0.6-0.9-0.6-1.6c0-0.6,0.2-1.1,0.6-1.5c0.4-0.4,0.9-0.8,1.4-1.1c0.6-0.3,1.2-0.5,1.9-0.7c0.7-0.2,1.4-0.2,2-0.2
		c0.9,0,1.7,0.1,2.4,0.2c0.7,0.1,1.4,0.4,1.9,0.7c0.6,0.3,1,0.9,1.3,1.5c0.3,0.7,0.5,1.5,0.5,2.6c0,1.1,0,2.5-0.1,4
		c0,1.5-0.1,2.6-0.1,3c0,0.4,0.1,0.8,0.2,1.1c0.1,0.3,0.3,0.5,0.5,0.6c0.1,0.1,0.4,0.1,0.7,0.1c0.3,0,0.6,0,0.9,0V508z M220.9,500.3
		c-0.5,0.2-1,0.4-1.5,0.6c-0.5,0.2-0.9,0.5-1.2,0.8c-0.3,0.3-0.6,0.6-0.8,1.1c-0.2,0.4-0.3,0.9-0.3,1.5c0,0.8,0.2,1.3,0.5,1.7
		c0.3,0.3,0.7,0.5,1.2,0.5c0.5,0,0.9-0.1,1.2-0.3c0.3-0.2,0.6-0.5,0.8-0.8L220.9,500.3z"/>
	<path class="st0" d="M245.6,514.9h-9.2v-1.1c0.2,0,0.5-0.1,0.9-0.1c0.3,0,0.6-0.1,0.8-0.2c0.3-0.1,0.5-0.3,0.6-0.5
		c0.1-0.3,0.2-0.6,0.2-0.9v-5.2l-0.1,0c-0.2,0.2-0.3,0.4-0.6,0.6c-0.2,0.2-0.5,0.4-0.9,0.6c-0.4,0.2-0.7,0.4-1.1,0.5
		c-0.3,0.1-0.8,0.2-1.4,0.2c-1.8,0-3.3-0.7-4.5-2.1c-1.1-1.4-1.7-3.4-1.7-5.8c0-2.2,0.7-4,2-5.5c1.4-1.4,3.1-2.2,5.1-2.2
		c1,0,2,0.1,2.8,0.4c0.8,0.3,1.6,0.6,2.3,1l1.7-1.9l0.7,0.2c0,0.6-0.1,1.4-0.1,2.4c-0.1,1-0.1,1.8-0.1,2.5v14c0,0.4,0.1,0.7,0.2,0.9
		c0.1,0.3,0.3,0.5,0.6,0.6c0.2,0.1,0.4,0.2,0.8,0.3c0.3,0.1,0.6,0.1,0.9,0.2V514.9z M238.9,505.3v-8.4c-0.1-0.2-0.2-0.5-0.3-0.8
		c-0.1-0.3-0.3-0.6-0.5-0.8c-0.2-0.2-0.4-0.5-0.7-0.6c-0.3-0.2-0.6-0.2-1-0.2c-0.9,0-1.6,0.6-2.1,1.7c-0.5,1.2-0.8,2.8-0.8,4.8
		c0,0.8,0.1,1.6,0.2,2.2c0.1,0.6,0.3,1.2,0.5,1.7c0.3,0.5,0.6,0.9,1,1.2c0.4,0.3,0.9,0.4,1.5,0.4c0.6,0,1-0.1,1.4-0.3
		C238.3,505.9,238.6,505.7,238.9,505.3z"/>
	<path class="st0" d="M263.3,508l-6.3,0.4l-0.2-0.2v-1.9h-0.1c-0.3,0.3-0.6,0.6-0.9,0.9c-0.3,0.3-0.6,0.6-1,0.8
		c-0.4,0.3-0.9,0.5-1.3,0.6c-0.4,0.1-1,0.2-1.7,0.2c-1.3,0-2.3-0.5-3-1.4c-0.7-0.9-1.1-2.2-1.1-3.8v-6.7c0-0.4-0.1-0.7-0.2-0.9
		c-0.1-0.2-0.3-0.5-0.5-0.6c-0.2-0.1-0.4-0.3-0.7-0.3c-0.3-0.1-0.5-0.1-0.8-0.1v-1.1l6.4-0.4l0.1,0.2v9.9c0,1,0.2,1.8,0.5,2.3
		c0.3,0.5,0.8,0.7,1.4,0.7c0.6,0,1.2-0.2,1.7-0.5c0.5-0.4,0.9-0.8,1.1-1.2v-8c0-0.3-0.1-0.6-0.2-0.9c-0.1-0.3-0.3-0.5-0.5-0.7
		c-0.2-0.1-0.4-0.2-0.7-0.2c-0.3,0-0.6-0.1-0.9-0.1v-1.1l6.4-0.4l0.2,0.2V505c0,0.3,0.1,0.6,0.2,0.9c0.1,0.2,0.3,0.5,0.5,0.6
		c0.2,0.1,0.4,0.2,0.7,0.2c0.3,0,0.5,0.1,0.8,0.1V508z"/>
	<path class="st0" d="M279.6,508c-0.4,0.2-0.8,0.4-1.4,0.5c-0.5,0.2-1.1,0.2-1.7,0.2c-1.1,0-1.9-0.2-2.4-0.5c-0.5-0.4-0.9-0.9-1-1.6
		h-0.1c-0.3,0.3-0.6,0.6-0.9,0.9c-0.3,0.2-0.6,0.4-0.9,0.6c-0.4,0.2-0.8,0.4-1.2,0.5c-0.4,0.1-0.9,0.1-1.6,0.1c-1,0-1.9-0.3-2.7-1
		c-0.7-0.7-1.1-1.6-1.1-2.7c0-0.6,0.1-1.2,0.2-1.7c0.2-0.5,0.4-0.9,0.7-1.2c0.3-0.3,0.6-0.6,0.9-0.8c0.4-0.2,0.7-0.4,1.2-0.6
		c0.8-0.3,1.8-0.7,2.9-1c1.1-0.4,1.9-0.7,2.5-0.9v-1.4c0-0.3,0-0.6-0.1-1c0-0.4-0.1-0.8-0.2-1c-0.1-0.3-0.3-0.6-0.6-0.8
		c-0.3-0.2-0.6-0.3-1.1-0.3c-0.4,0-0.7,0.1-1,0.2c-0.3,0.1-0.5,0.3-0.6,0.4c0,0.2,0.1,0.5,0.2,0.9c0.1,0.4,0.2,0.8,0.2,1.2
		c0,0.2,0,0.4-0.1,0.6c-0.1,0.3-0.2,0.5-0.3,0.6c-0.2,0.2-0.4,0.4-0.7,0.5c-0.3,0.1-0.6,0.2-1.2,0.2c-0.7,0-1.3-0.2-1.7-0.6
		c-0.4-0.4-0.6-0.9-0.6-1.6c0-0.6,0.2-1.1,0.6-1.5c0.4-0.4,0.9-0.8,1.4-1.1c0.6-0.3,1.2-0.5,1.9-0.7c0.7-0.2,1.4-0.2,2-0.2
		c0.9,0,1.7,0.1,2.4,0.2c0.7,0.1,1.4,0.4,1.9,0.7c0.6,0.3,1,0.9,1.3,1.5c0.3,0.7,0.5,1.5,0.5,2.6c0,1.1,0,2.5-0.1,4
		c0,1.5-0.1,2.6-0.1,3c0,0.4,0.1,0.8,0.2,1.1c0.1,0.3,0.3,0.5,0.5,0.6c0.1,0.1,0.4,0.1,0.7,0.1c0.3,0,0.6,0,0.9,0V508z M273.1,500.3
		c-0.5,0.2-1,0.4-1.5,0.6c-0.5,0.2-0.9,0.5-1.2,0.8c-0.3,0.3-0.6,0.6-0.8,1.1c-0.2,0.4-0.3,0.9-0.3,1.5c0,0.8,0.2,1.3,0.5,1.7
		c0.3,0.3,0.7,0.5,1.2,0.5c0.5,0,0.9-0.1,1.2-0.3c0.3-0.2,0.6-0.5,0.8-0.8L273.1,500.3z"/>
	<path class="st0" d="M293.8,496.3c0,0.8-0.2,1.4-0.6,2c-0.4,0.6-1,0.9-1.6,0.9c-0.6,0-1.2-0.2-1.6-0.5c-0.4-0.4-0.7-0.9-0.7-1.6
		c0-0.3,0-0.6,0.1-0.8c0-0.2,0.1-0.4,0.1-0.5c-0.4,0-0.8,0.2-1.3,0.5c-0.5,0.3-0.8,0.7-1.2,1.2v8.1c0,0.3,0,0.6,0.1,0.9
		c0.1,0.2,0.3,0.4,0.5,0.5c0.2,0.1,0.5,0.2,0.9,0.3c0.4,0.1,0.7,0.1,0.9,0.1v1.1h-8.9v-1.1c0.2,0,0.4,0,0.7-0.1
		c0.2,0,0.4-0.1,0.6-0.1c0.3-0.1,0.5-0.3,0.6-0.5c0.1-0.2,0.2-0.5,0.2-0.9v-8.6c0-0.4-0.1-0.7-0.2-1c-0.1-0.3-0.3-0.5-0.5-0.7
		c-0.2-0.1-0.4-0.2-0.6-0.3c-0.2-0.1-0.5-0.1-0.8-0.2v-1.1l6.3-0.4l0.2,0.2v2.1h0.1c0.6-0.8,1.3-1.4,1.9-1.9
		c0.7-0.5,1.4-0.7,2.1-0.7c0.8,0,1.5,0.3,2,0.9C293.6,494.6,293.8,495.4,293.8,496.3z"/>
	<path class="st0" d="M309,504.7c-0.3,0.6-0.7,1.1-1.1,1.6c-0.4,0.5-0.9,0.9-1.5,1.3c-0.6,0.4-1.2,0.7-1.8,0.9
		c-0.6,0.2-1.3,0.3-2.1,0.3c-1.3,0-2.4-0.2-3.4-0.6c-0.9-0.4-1.7-1-2.4-1.7c-0.6-0.7-1.1-1.5-1.4-2.5c-0.3-1-0.5-2-0.5-3.1
		c0-1,0.2-2,0.5-2.9c0.3-0.9,0.8-1.8,1.4-2.5c0.6-0.7,1.4-1.3,2.3-1.7c0.9-0.4,1.9-0.7,3.1-0.7c1.2,0,2.3,0.2,3.1,0.5
		c0.8,0.3,1.5,0.8,2,1.4c0.5,0.6,0.9,1.2,1.1,2c0.2,0.8,0.3,1.6,0.3,2.4v1h-9c0,2.1,0.3,3.6,1,4.7c0.7,1.1,1.8,1.6,3.3,1.6
		c0.8,0,1.6-0.3,2.2-0.8c0.7-0.5,1.2-1.2,1.7-2L309,504.7z M304,499.1c0-0.6,0-1.2-0.1-1.8c-0.1-0.6-0.1-1.1-0.3-1.5
		c-0.2-0.5-0.4-0.8-0.6-1c-0.3-0.2-0.6-0.4-1-0.4c-0.7,0-1.2,0.4-1.6,1.2c-0.4,0.8-0.6,2-0.7,3.6L304,499.1z"/>
	<path class="st0" d="M336.6,508.3h-7.9v-1.1c0.2,0,0.4-0.1,0.6-0.1c0.2,0,0.4-0.1,0.5-0.2c0.2-0.1,0.3-0.3,0.4-0.5
		c0.1-0.2,0.1-0.5,0.1-0.9v-7c0-1-0.2-1.8-0.5-2.3c-0.3-0.5-0.8-0.8-1.4-0.8c-0.4,0-0.7,0.1-1,0.2c-0.3,0.1-0.6,0.3-0.8,0.5
		c-0.3,0.2-0.5,0.4-0.6,0.6c-0.1,0.2-0.3,0.4-0.4,0.5v8c0,0.4,0,0.7,0.1,0.9c0.1,0.2,0.2,0.4,0.4,0.5c0.1,0.1,0.3,0.2,0.5,0.2
		c0.2,0.1,0.4,0.1,0.6,0.1v1.1h-7.5v-1.1c0.2,0,0.4,0,0.6-0.1c0.2,0,0.4-0.1,0.5-0.2c0.2-0.1,0.3-0.3,0.4-0.5
		c0.1-0.2,0.1-0.5,0.1-0.9v-7c0-1-0.2-1.8-0.5-2.3c-0.3-0.5-0.8-0.8-1.4-0.8c-0.4,0-0.7,0.1-1,0.2c-0.3,0.1-0.6,0.3-0.8,0.5
		c-0.3,0.2-0.5,0.4-0.6,0.6c-0.1,0.2-0.3,0.4-0.4,0.5v8c0,0.3,0,0.6,0.1,0.9c0.1,0.2,0.2,0.4,0.4,0.5c0.1,0.1,0.3,0.2,0.5,0.2
		c0.2,0.1,0.4,0.1,0.6,0.1v1.1h-7.9v-1.1c0.2,0,0.5,0,0.7-0.1c0.2,0,0.4-0.1,0.6-0.1c0.3-0.1,0.5-0.3,0.6-0.5
		c0.1-0.2,0.2-0.5,0.2-0.9v-8.6c0-0.3-0.1-0.6-0.2-0.9c-0.1-0.3-0.3-0.5-0.5-0.7c-0.2-0.1-0.4-0.2-0.6-0.3c-0.2-0.1-0.5-0.1-0.8-0.2
		v-1.1l6.3-0.4l0.2,0.2v2.1h0.1c0.2-0.2,0.5-0.5,0.9-0.9c0.3-0.3,0.7-0.6,1-0.8c0.3-0.2,0.7-0.4,1.3-0.6c0.5-0.2,1.1-0.2,1.7-0.2
		c1,0,1.8,0.2,2.5,0.7c0.7,0.5,1.1,1.1,1.4,2h0.1c0.3-0.3,0.6-0.6,0.9-0.9c0.4-0.4,0.7-0.7,1-0.9c0.3-0.2,0.8-0.5,1.3-0.6
		c0.5-0.2,1.1-0.3,1.7-0.3c1.3,0,2.3,0.4,3.1,1.3c0.7,0.9,1.1,2.1,1.1,3.8v7.2c0,0.4,0.1,0.7,0.2,0.9c0.1,0.2,0.3,0.4,0.6,0.5
		c0.1,0.1,0.3,0.1,0.5,0.2c0.2,0.1,0.5,0.1,0.8,0.1V508.3z"/>
	<path class="st0" d="M353.1,508c-0.4,0.2-0.8,0.4-1.4,0.5c-0.5,0.2-1.1,0.2-1.7,0.2c-1.1,0-1.9-0.2-2.4-0.5c-0.5-0.4-0.9-0.9-1-1.6
		h-0.1c-0.3,0.3-0.6,0.6-0.9,0.9c-0.3,0.2-0.6,0.4-0.9,0.6c-0.4,0.2-0.8,0.4-1.2,0.5c-0.4,0.1-0.9,0.1-1.6,0.1c-1,0-1.9-0.3-2.7-1
		c-0.7-0.7-1.1-1.6-1.1-2.7c0-0.6,0.1-1.2,0.2-1.7c0.2-0.5,0.4-0.9,0.7-1.2c0.3-0.3,0.6-0.6,0.9-0.8c0.4-0.2,0.7-0.4,1.2-0.6
		c0.8-0.3,1.8-0.7,2.9-1c1.1-0.4,1.9-0.7,2.5-0.9v-1.4c0-0.3,0-0.6-0.1-1c0-0.4-0.1-0.8-0.2-1c-0.1-0.3-0.3-0.6-0.6-0.8
		c-0.3-0.2-0.6-0.3-1.1-0.3c-0.4,0-0.7,0.1-1,0.2c-0.3,0.1-0.5,0.3-0.6,0.4c0,0.2,0.1,0.5,0.2,0.9c0.1,0.4,0.2,0.8,0.2,1.2
		c0,0.2,0,0.4-0.1,0.6c-0.1,0.3-0.2,0.5-0.3,0.6c-0.2,0.2-0.4,0.4-0.7,0.5c-0.3,0.1-0.6,0.2-1.2,0.2c-0.7,0-1.3-0.2-1.7-0.6
		c-0.4-0.4-0.6-0.9-0.6-1.6c0-0.6,0.2-1.1,0.6-1.5c0.4-0.4,0.9-0.8,1.4-1.1c0.6-0.3,1.2-0.5,1.9-0.7c0.7-0.2,1.4-0.2,2-0.2
		c0.9,0,1.7,0.1,2.4,0.2c0.7,0.1,1.4,0.4,1.9,0.7c0.6,0.3,1,0.9,1.3,1.5c0.3,0.7,0.5,1.5,0.5,2.6c0,1.1,0,2.5-0.1,4
		c0,1.5-0.1,2.6-0.1,3c0,0.4,0.1,0.8,0.2,1.1c0.1,0.3,0.3,0.5,0.5,0.6c0.1,0.1,0.4,0.1,0.7,0.1c0.3,0,0.6,0,0.9,0V508z M346.5,500.3
		c-0.5,0.2-1,0.4-1.5,0.6c-0.5,0.2-0.9,0.5-1.2,0.8c-0.3,0.3-0.6,0.6-0.8,1.1c-0.2,0.4-0.3,0.9-0.3,1.5c0,0.8,0.2,1.3,0.5,1.7
		c0.3,0.3,0.7,0.5,1.2,0.5c0.5,0,0.9-0.1,1.2-0.3c0.3-0.2,0.6-0.5,0.8-0.8L346.5,500.3z"/>
	<path class="st0" d="M362.4,501.8h-8v-3.3h8V501.8z"/>
	<path class="st0" d="M386.1,508.3h-7.2c-1.2-2.1-2.3-3.8-3.1-5.1c-0.8-1.3-1.8-2.7-3.1-4.4h-0.7v6.4c0,0.4,0.1,0.7,0.2,0.9
		c0.1,0.2,0.3,0.5,0.7,0.6c0.2,0.1,0.4,0.2,0.8,0.2c0.4,0.1,0.7,0.1,0.9,0.2v1.2h-10v-1.2c0.3,0,0.6-0.1,1-0.1
		c0.4-0.1,0.7-0.1,0.9-0.2c0.3-0.2,0.6-0.4,0.7-0.6c0.1-0.2,0.2-0.6,0.2-0.9v-14.9c0-0.4,0-0.7-0.1-0.9c-0.1-0.2-0.3-0.4-0.7-0.6
		c-0.3-0.1-0.6-0.2-1-0.3c-0.4-0.1-0.7-0.2-0.9-0.2v-1.2H375c2.4,0,4.1,0.4,5.4,1.2c1.2,0.8,1.8,2.1,1.8,3.8c0,1.5-0.4,2.7-1.1,3.6
		c-0.7,0.9-1.9,1.6-3.4,2.1c0.6,0.9,1.3,1.9,2.1,3c0.8,1.1,1.6,2.3,2.5,3.5c0.3,0.4,0.6,0.9,1.1,1.4c0.5,0.6,0.9,0.9,1.3,1
		c0.2,0.1,0.5,0.1,0.8,0.2c0.3,0,0.5,0.1,0.7,0.1V508.3z M377.1,492.6c0-1.4-0.4-2.4-1.1-3.1c-0.7-0.6-1.7-1-3-1h-1.1v8.8h1
		c1.3,0,2.3-0.4,3-1.1C376.7,495.4,377.1,494.2,377.1,492.6z"/>
	<path class="st0" d="M400.6,488.3c-0.4,0.1-0.7,0.1-0.9,0.1c-0.2,0-0.5,0.1-0.8,0.2c-0.4,0.1-0.6,0.3-0.7,0.6
		c-0.1,0.3-0.1,0.6-0.1,0.9v11.6c0,1.1-0.2,2.1-0.6,2.9c-0.4,0.9-0.9,1.6-1.6,2.2c-0.7,0.6-1.4,1-2.3,1.3c-0.8,0.3-1.7,0.5-2.7,0.5
		c-1.6,0-3-0.4-4-1.3c-1-0.9-1.5-2.1-1.5-3.7c0-0.9,0.2-1.7,0.7-2.3c0.5-0.6,1.1-0.9,1.9-0.9c0.8,0,1.4,0.3,1.8,0.8
		c0.5,0.5,0.7,1.1,0.7,1.9c0,0.6-0.2,1.2-0.6,1.8c-0.4,0.5-0.8,1-1.3,1.5v0.2c0.1,0.2,0.3,0.4,0.5,0.5c0.3,0.1,0.5,0.2,0.8,0.2
		c1.1,0,1.9-0.4,2.5-1.3c0.6-0.8,0.9-2.1,0.9-3.9v-11.9c0-0.4,0-0.7-0.1-0.9c-0.1-0.2-0.3-0.4-0.7-0.6c-0.3-0.1-0.6-0.2-1-0.3
		c-0.4-0.1-0.7-0.2-0.9-0.2v-1.2h10V488.3z"/>
	<path class="st0" d="M473.7,352.3c-22.8-11.4-28.9-32.5-54-32.5c-12.3,0-19.1,6.5-31.4,6.5c-15.6,0-22.3-13-37.9-13
		c-6.7,0-15.8,0.9-15.8,7.7c0,6.5,0,10.5,0,17c0,22.8,4,39.8,20.5,55.1c9.3,8.6,20.5,7.2,28.6,16.7v5.6c-3.3,0-4.9,0-8.1,0
		c-4.9,0-5.8-4.9-9.3-8.4c-9.3-9.3-19.3-8.8-32.6-10.2c-5.6-0.5-7.9-5.6-13.5-5.6c-2.1,0-4.2,1.2-4.2,3.3c0,9.5,8.8,11.6,14.9,19.1
		c-4.9,4.2-10.9-0.9-15.8-4.7c-13.3-10.5-17.4-27-34.4-27c-3.7,0-5.8,1.9-9.5,1.9c-6.7,0-8.1-9.3-14.9-9.3
		c-13.3,0-18.4,11.2-25.4,22.3c-2.8,4.4-4.9,9.3-10.2,9.3c-6.5,0-10,0-16.5,0c-8.6,0-13.5-1.2-21.4-4.7c0.2-1.6,0.7-2.8,0.9-4.7
		c6.7,0,10.5,0,17.2,0c8.4,0,10.5-7.9,17-13c9.1-7,11.4-14.4,17.4-24.2c2.8-4.4,6.5-6.7,6.5-12.1c0-14-8.8-27.7-22.8-27.7
		c-28.6,0-39.3,27.7-67.9,27.7c-8.6,0-13.5-1.2-22.1-1.9c-6.3-0.5-14.9-0.7-14.9-7c0-7.2,9.8-6.5,16.7-7.9
		c13.5-2.8,20.7-5.4,34.2-8.1c9.3-1.9,18.6-6.7,18.6-16.3c0-4.4-1.2-9.8-5.6-9.8c-24.4,0-32.1,27-56.5,27c-7,0-10.9-3.3-17.7-4.7
		c-3.5-0.7-8.4-0.5-8.4-4.2c0-2.1,0.7-3,0.9-5.1c8.8,0.9,15.8,1.9,22.3-3.7c6.7-5.8,7.7-12.8,14.9-17.7c8.4-5.8,13.5-9.5,23-13.7
		c7.4-3.3,15.8-5.8,15.8-14c0-4.7-3.7-6.7-6.5-10.2c-10.5,4.7-14,14.9-25.4,14.9c-7,0-10.2-3.7-16.3-7c10.7-17,20.2-28.4,39.8-34
		c9.5-2.8,16-4.4,22.3-12.1c2.8-3.5,7.2-4.7,7.2-9.3c0-6-4.2-8.6-5.3-14.7c-4.2,0-6.7,0-10.9,0c-6.5,0-8.6,8.1-15.1,8.1
		c-4.2,0-9.3-1.2-9.3-5.3c0-6.3,7.7-6.3,12.1-10.2c8.6-7.9,15.4-10.5,25.8-15.8c4.7-2.3,8.8-2.6,12.1-6.5c3.7-4.4,1.6-10.7,6.5-14
		c4.7-3.3,9.1-0.7,14.9-0.7c3.3-0.2,1.7,0.9,4.7,0c-0.9-8.6-11.6-8.1-14.9-16c16.3-7.2,29.5-7.7,39.8-22.1
		c-4.9-3.5-9.5-2.1-14.9-5.3c4.4-13.3,20-8.4,30.7-16.7c9.3-7.2,13-14,18.6-24.2c6.7,2.1,7.7,7.7,12.1,13
		c10.2,12.1,19.3,19.8,35.1,22.3c20,3.3,40.9,5.1,46.3,24.9c2.3,2.3,4.6,2.5,4.8,5.7c-6.5-0.7-10.2-2.8-16.7-2.8
		c7.2,12.3,27,11.4,27,25.8c0,2.1-0.5,3.5-0.9,5.6c-8.4-2.8-13.7-2.8-21.4-7.2c-4-2.1-5.6-6.5-10.2-6.5c-4.2,0-8.4,2.3-8.4,6.5
		c0,10.2,14.9,6.7,22.3,13.7c7.4,7,13.7,8.4,21.4,14.9c6.7,5.8,8.8,11.6,16.7,15.8c10.9,5.8,24.9,4,27.7,16.5
		c-2.1,0.2-3.3,0.9-5.4,0.9c-7.4,0-11.4-3.7-18.8-3.7c-7,0-16.5,0.9-16.5,7.9c0,5.3,6.3,7,11.6,7c11.9,0,18.8-0.2,30.7-0.2
		c7.2,0,14.2,4.7,14.2,11.9c0,4.9-5.4,7.9-10.2,7.9c-7.2,0-11.4-1.9-18.6-1.9c-6.5,0-10.2,0.7-16.5,1.9c-4.4,0.7-11.2-0.5-11.2,4.2
		c0,8.4,12.1,5.8,20.2,7c7,1.2,10.5,5.1,16.7,8.4c10.2,5.6,14,12.8,24,18.6c6,3.5,12.8,6.1,12.8,13.3c0,3.3-2.3,6-5.6,6
		c-10,0-17.2,0.7-25.6-4.7c-3.5-2.1-3.3-8.1-7.4-8.1c-6,0-12.1,3.9-12.1,10c0,7.9,10.5,7.2,17.7,10.2c12.8,5.6,17.9,13.3,30.2,19.5
		c11.2,5.6,24.4,8.8,24.4,21.4c0,6-6.1,9.8-12.1,9.8C481.6,354.9,478.4,353.9,473.7,352.3L473.7,352.3z M262.4,152
		c2.6,0-0.5-3.7-0.7-6.3c-2.6,0-3.7,0-6.3,0c-8.8,0-13.7,6.5-17.2,14.7c1.4,0.9,1.9,2.8,3.7,2.8C251,163.1,253.3,152,262.4,152
		L262.4,152z M282.6,149.1H277c8.4-3.5,18.6-4.7,18.6-13.7c0-3.3-1.4-5.6-2.8-8.4c-9.3,3.7-14,9.3-24,9.3c0,1.6,0,2.8,0,4.4
		c0,4,3.5,6.3,7.4,6.7 M310.6,140c2.6,0,4-0.2,6.3-0.7c-0.5-5.8-2.1-9.3-4.7-14.2c-4.2,1.2-10,1.2-10,5.6c0,3.7,4.9,3.7,7.7,5.8
		C310.8,137.2,309.2,140,310.6,140L310.6,140z M333.7,141.9c1.6-1.9,4.4-2.6,4.4-5.1c0-2.3,0-3.7,0-6h-10.9v4.9
		C328.4,138.6,330.7,140.7,333.7,141.9L333.7,141.9z M376.4,215.1c0.9-3.5,2.1-6,3.5-9.3c-1.2-1.6-2.3-3.7-4.4-3.7
		c-5.1,0-10.9,2.1-10.9,7.2C364.5,213,372.6,214.4,376.4,215.1L376.4,215.1z M344,186.4c4.2-2.6,9.1-4.2,9.1-9.1
		c0-1.4-1.6-1.9-1.9-3c-6.7,0-10.5,0-17.2,0c-3.5,0-5.8,3.3-5.8,6.7C328.1,187.1,339.3,182.4,344,186.4L344,186.4z M316.2,179
		c0.2-2.3,1.6-3.5,1.6-5.8c0-2.1-0.7-3.3-0.9-5.3c-3.3,0.2-7,1.9-7,5.1C309.9,176.2,313.9,176.9,316.2,179L316.2,179z M282.7,181.7
		c6-0.5,13-2.6,13-8.6c0-2.1,0-3.3,0-5.3c-3.3,0-4.9,0-8.1,0C280.6,167.8,286,175.7,282.7,181.7L282.7,181.7z M231.4,188.3
		c3.7,0,8.6-0.7,8.6-4.4c0-3.5-1.6-5.6-2.8-8.6c-4.9,0.9-10.9,2.1-10.9,7.2C226.3,185.5,228.4,188.3,231.4,188.3L231.4,188.3z
		 M212.3,194.6c3.5,0,4.4-4.2,4.4-7.7c0-7.9-11.4-6-19.3-6C198.1,188.8,204.4,194.6,212.3,194.6L212.3,194.6z M188.3,257.7
		c6.3,0,8.8-4.9,14.7-6.7c5.1-1.6,13.7,0.9,13.7-4.7c0-1.6-0.9-2.8-0.9-4.4c-6.7,0-10.5,0-17.2,0c-4.9,0-7.2-1.9-12.1-2.8
		c-3.7,0-8.1-0.9-9.3,2.8C179.3,249.1,180.9,257.7,188.3,257.7L188.3,257.7z M254,218.8c-5.1,0.2-7.7,4.4-9.3,9.3
		c2.6,0.7,4.2,1.9,7,1.9C255.4,230,253.8,222.5,254,218.8L254,218.8z M280.1,215.1l-3.5-1.6l-2.1,3.3v5.8l10,0.9
		C284.5,220.9,280.5,217.6,280.1,215.1L280.1,215.1z M299.4,221.6c-4.7,1.4-9.3,4-9.3,8.8c0,4.7,5.6,6,10.2,6c2.1,0,3.5-2.1,3.5-4.2
		c0-1.6-1.4-2.8-1.9-4.2L299.4,221.6L299.4,221.6z M319,231.8l-3.5-3.5c-0.7,1.6-1.9,2.8-1.9,4.7c0,3.5,2.6,5.1,4.4,7.9
		C319,238.8,318.5,234.2,319,231.8L319,231.8z M381.9,265.2c-1.6-3.3-4.2-5.3-7.9-5.3c-10,0-16.7,4.7-22.6,12.8l0.9,3.7
		c3.7,0,6,0.9,9.8,0.9c4.4,0,5.8-4.4,9.5-6.5C375.7,268.7,379.4,268.9,381.9,265.2L381.9,265.2z M410.3,267
		c-7.4,0-12.6,4.2-15.4,10.9l0.9,4.9c2.6,0,3.7,0,6.3,0c6.7,0,14.9-2.3,14.9-9.1C417.1,270.1,414,267,410.3,267L410.3,267z
		 M288.3,280.1c-2.1,1.4-3.3,2.6-4.7,4.4v8.4c2.1,0.2,3.3,0.9,5.3,0.9C293.2,293.8,288.3,284.2,288.3,280.1L288.3,280.1z M267,285.5
		l-9.3-0.9c-0.2,3.7-0.9,5.8-0.9,9.5c0,2.6,2.8,3.7,4.7,5.1h5.6V285.5L267,285.5z M241.7,288.3c-0.7-6.7-6-10-12.6-11.9
		c-1.4,2.8-2.8,5.1-2.8,8.4c0,5.4,4.7,9.1,10,9.1C239.4,293.9,239.8,290.6,241.7,288.3L241.7,288.3z"/>
</g>
</svg>
